<?xml version="1.0" standalone="no"?>
<!DOCTYPE svg PUBLIC "-//W3C//DTD SVG 20010904//EN"
 "http://www.w3.org/TR/2001/REC-SVG-20010904/DTD/svg10.dtd">
<svg version="1.0" xmlns="http://www.w3.org/2000/svg"
 width="823.000000pt" height="486.000000pt" viewBox="0 0 823.000000 486.000000"
 preserveAspectRatio="xMidYMid meet">

<g transform="translate(0.000000,486.000000) scale(0.100000,-0.100000)"
fill="#000000" stroke="none">
<path d="M3875 4462 c-116 -40 -200 -113 -252 -221 -25 -50 -28 -67 -28 -161
0 -95 3 -110 29 -164 35 -71 115 -154 176 -182 120 -56 253 -57 364 -4 78 37
113 65 160 128 139 190 77 469 -127 573 -100 51 -228 64 -322 31z"/>
<path d="M3780 3594 c-127 -12 -221 -28 -258 -45 -57 -24 -151 -121 -185 -189
-28 -56 -42 -141 -54 -328 -5 -74 -8 -83 -27 -86 -38 -8 -270 -15 -298 -9 -15
3 -45 23 -65 45 -21 22 -64 60 -96 84 -77 61 -91 90 -83 174 3 36 13 89 22
119 8 29 12 57 7 61 -4 4 -66 24 -136 44 -71 20 -180 56 -243 81 -152 60 -181
59 -155 -7 5 -13 17 -43 26 -68 18 -47 40 -100 55 -135 5 -11 16 -42 25 -70
10 -27 21 -59 25 -70 5 -11 14 -37 20 -58 19 -62 56 -71 157 -36 34 11 78 19
99 17 33 -3 44 -11 81 -58 24 -30 62 -77 86 -104 71 -83 69 -79 68 -189 -1
-82 2 -109 17 -137 33 -63 62 -70 277 -70 129 0 216 5 270 15 141 27 144 29
214 115 36 44 70 80 77 80 19 0 26 -34 14 -64 -5 -15 -10 -60 -10 -100 0 -47
-5 -77 -12 -84 -7 -5 -47 -13 -88 -16 -41 -4 -115 -17 -165 -28 -81 -20 -95
-27 -140 -69 l-50 -48 -6 -293 c-4 -161 -10 -321 -14 -355 -4 -34 -4 -92 0
-130 6 -62 11 -71 45 -103 90 -83 274 -113 369 -60 85 48 86 49 89 323 3 205
5 244 19 259 14 16 37 18 213 18 149 0 201 -3 215 -13 16 -13 18 -32 19 -223
1 -196 2 -212 24 -260 13 -29 35 -63 50 -77 57 -55 66 -56 503 -58 358 -1 409
0 444 15 52 22 103 71 126 121 23 50 25 161 3 213 -15 38 -65 96 -96 113 -40
22 -136 30 -354 29 -196 0 -234 2 -244 15 -10 12 -11 53 -1 203 19 302 26 827
12 983 -21 232 -44 294 -146 387 -83 76 -162 111 -276 122 -88 9 -390 11 -469
4z"/>
</g>
</svg>
